{"accessors":[{"bufferView":0,"componentType":5123,"count":612,"max":[383],"min":[0],"type":"SCALAR"},{"bufferView":1,"componentType":5126,"count":384,"max":[1.313078761100769,1.070251226425171,0.21947801113128662],"min":[-0.26495233178138733,-0.579479455947876,-0.21947801113128662],"type":"VEC3"},{"bufferView":2,"componentType":5126,"count":384,"max":[1.0,1.0,1.0],"min":[-1.0,-1.0,-1.0],"type":"VEC3"},{"bufferView":3,"componentType":5126,"count":384,"max":[0.875,1.0],"min":[0.125,0.0],"type":"VEC2"},{"bufferView":4,"componentType":5126,"count":384,"max":[1.0,1.0,1.0,1.0],"min":[0.250158312690098,0.2050787369178614,0.21586052772625525,1.0],"type":"VEC4"},{"bufferView":5,"componentType":5121,"count":372,"max":[191],"min":[0],"type":"SCALAR"},{"bufferView":6,"componentType":5126,"count":192,"max":[1.0,0.1560518741607666,1.0],"min":[-1.0,0.0,-1.0],"type":"VEC3"},{"bufferView":7,"componentType":5126,"count":192,"max":[0.9951847195625305,1.0,0.9951847195625305],"min":[-0.9951847195625305,-0.9999999403953552,-0.9951847791671753],"type":"VEC3"},{"bufferView":8,"componentType":5126,"count":192,"max":[1.0,0.989999994635582],"min":[0.0,0.0],"type":"VEC2"},{"bufferView":9,"componentType":5121,"count":12,"max":[7],"min":[0],"type":"SCALAR"},{"bufferView":10,"componentType":5126,"count":8,"max":[0.9999998807907104,-1.5154621601104736,0.3790934681892395],"min":[-1.0000009536743164,-13.969082832336426,-0.6240213513374329],"type":"VEC3"},{"bufferView":11,"componentType":5126,"count":8,"max":[0.0,1.0,-0.0],"min":[0.0,1.0,-0.0],"type":"VEC3"},{"bufferView":12,"componentType":5126,"count":8,"max":[1.0,1.0],"min":[0.0,0.0],"type":"VEC2"}],"asset":{"generator":"Soft8Soft Verge3D for Blender add-on","version":"2.0"},"bufferViews":[{"buffer":0,"byteLength":1224,"byteOffset":0,"target":34963},{"buffer":0,"byteLength":4608,"byteOffset":1224,"target":34962},{"buffer":0,"byteLength":4608,"byteOffset":5832,"target":34962},{"buffer":0,"byteLength":3072,"byteOffset":10440,"target":34962},{"buffer":0,"byteLength":6144,"byteOffset":13512,"target":34962},{"buffer":0,"byteLength":372,"byteOffset":19656,"target":34963},{"buffer":0,"byteLength":2304,"byteOffset":20028,"target":34962},{"buffer":0,"byteLength":2304,"byteOffset":22332,"target":34962},{"buffer":0,"byteLength":1536,"byteOffset":24636,"target":34962},{"buffer":0,"byteLength":12,"byteOffset":26172,"target":34963},{"buffer":0,"byteLength":96,"byteOffset":26184,"target":34962},{"buffer":0,"byteLength":96,"byteOffset":26280,"target":34962},{"buffer":0,"byteLength":64,"byteOffset":26376,"target":34962}],"buffers":[{"byteLength":26440,"uri":"porcentage-object.bin"}],"cameras":[{"extensions":{"S8S_v3d_camera_data":{"controls":"ORBIT","enablePan":true,"moveSpeed":1.0,"orbitMaxDistance":100.0,"orbitMaxPolarAngle":3.1415927410125732,"orbitMaxZoom":100.0,"orbitMinDistance":0.0,"orbitMinPolarAngle":0.0,"orbitMinZoom":0.009999999776482582,"orbitTarget":[0.0,0.0,-0.0],"rotateSpeed":1.0,"viewportFitInitialAspect":1.0,"viewportFitType":"AUTO"}},"name":"Camera","orthographic":{"xmag":1.3571429252624512,"ymag":1.3571429252624512,"zfar":100.0,"znear":0.10000000149011612},"type":"orthographic"}],"extensions":{"S8S_v3d_data":{"lights":[{"color":[1.0,1.0,1.0],"decay":2,"distance":31.58955597533569,"intensity":997.9000244140625,"name":"Light","profile":"blender","shadow":{"bias":-0.0018,"cameraFar":31.58955597533569,"cameraFov":0,"cameraNear":0.05000000074505806,"enabled":true,"expBias":2.5,"mapSize":512,"radius":1.0,"slopeScaledBias":2.5},"type":"point"}]}},"extensionsUsed":["S8S_v3d_material_data","S8S_v3d_camera_data","S8S_v3d_data","S8S_v3d_mesh_data","S8S_v3d_node_data","S8S_v3d_scene_data"],"materials":[{"extensions":{"S8S_v3d_material_data":{"materialIndex":0,"nodeGraph":{"edges":[{"fromNode":1,"fromOutput":0,"toInput":0,"toNode":0}],"nodes":[{"inputs":[[0,0,0,0],[0,0,0,0],[0.0,0.0,0.0]],"is_active_output":true,"name":"Material Output","outputs":[],"type":"OUTPUT_MATERIAL_BL"},{"inputs":[[1.0,1.0,1.0,1.0],94.89999389648438],"is_active_output":false,"name":"Emission","outputs":[[0,0,0,0]],"type":"EMISSION_BL"}]},"useCastShadows":true}},"name":"luz"},{"extensions":{"S8S_v3d_material_data":{"materialIndex":0,"nodeGraph":{"edges":[{"fromNode":1,"fromOutput":0,"toInput":0,"toNode":0}],"nodes":[{"inputs":[[0,0,0,0],[0,0,0,0],[0.0,0.0,0.0]],"is_active_output":true,"name":"Material Output","outputs":[],"type":"OUTPUT_MATERIAL_BL"},{"inputs":[[0.020485110580921173,0.8000000715255737,0.3408167064189911,1.0],0.0,[1.0,0.20000000298023224,0.10000000149011612],[0.003218606114387512,0.8000000715255737,0.007869316264986992,1.0],0.7037037014961243,0.5,0.0,0.5,0.0,0.0,0.0,0.5,0.0,0.029999999329447746,1.4500000476837158,0.0,0.0,[0.0,0.0,0.0,1.0],1.0,1.0,[0.0,0.0,0.0],[0.0,0.0,0.0],[0.0,0.0,0.0]],"is_active_output":false,"name":"Principled BSDF","outputs":[[0,0,0,0]],"type":"BSDF_PRINCIPLED_BL"}]},"useCastShadows":true}},"name":"prueba"},{"extensions":{"S8S_v3d_material_data":{"materialIndex":0,"nodeGraph":{"edges":[{"fromNode":1,"fromOutput":0,"toInput":0,"toNode":0}],"nodes":[{"inputs":[[0,0,0,0],[0,0,0,0]],"is_active_output":true,"name":"World Output","outputs":[],"type":"OUTPUT_WORLD_BL"},{"inputs":[[0.05087608844041824,0.05087608844041824,0.05087608844041824,1.0],1.0],"is_active_output":false,"name":"Background","outputs":[[0,0,0,0]],"type":"BACKGROUND_BL"}]},"useCastShadows":true}},"name":"Verge3D_Environment_World"},{"emissiveFactor":[0.0,0.0,0.0],"extensions":{"S8S_v3d_material_data":{"nodeGraph":{"edges":[{"fromNode":1,"fromOutput":0,"toInput":0,"toNode":0}],"nodes":[{"inputs":[[0,0,0,0],[0,0,0,0],0.0],"is_active_output":true,"name":"Material Output","outputs":[],"type":"OUTPUT_MATERIAL_BL"},{"inputs":[[0.800000011920929,0.800000011920929,0.800000011920929,1.0],0.0,[0.0,0.0,0.0]],"is_active_output":false,"name":"Diffuse BSDF","outputs":[[0,0,0,0]],"type":"BSDF_DIFFUSE_BL"}]},"useCastShadows":true,"useShadows":true}},"name":"v3d_default_material"}],"meshes":[{"extensions":{"S8S_v3d_mesh_data":{"colorLayers":{"Col":"COLOR_0"},"uvLayers":{"UVMap":"TEXCOORD_0"}}},"name":"Cube.001","primitives":[{"attributes":{"COLOR_0":4,"NORMAL":2,"POSITION":1,"TEXCOORD_0":3},"indices":0,"material":1,"mode":4}]},{"extensions":{"S8S_v3d_mesh_data":{"colorLayers":{},"uvLayers":{}}},"name":"Cylinder","primitives":[{"attributes":{"NORMAL":7,"POSITION":6,"TEXCOORD_0":8},"indices":5,"material":3,"mode":4}]},{"extensions":{"S8S_v3d_mesh_data":{"colorLayers":{},"uvLayers":{"UVMap":"TEXCOORD_0"}}},"name":"Plane","primitives":[{"attributes":{"NORMAL":11,"POSITION":10,"TEXCOORD_0":12},"indices":9,"material":0,"mode":4}]}],"nodes":[{"extensions":{"S8S_v3d_node_data":{"frustumCulling":true,"groupNames":["Collection"],"hidden":false,"hidpiCompositing":false,"light":0,"objectColor":[0.0,0.0,0.0],"objectIndex":0,"renderOrder":0}},"name":"Light","rotation":[-0.2841663062572479,0.7269423604011536,0.34203389286994934,0.5232754945755005],"scale":[0.9999999403953552,0.9999997019767761,0.9999999403953552],"translation":[0.0022497177124023438,5.903861999511719,-2.9748735427856445]},{"extensions":{"S8S_v3d_node_data":{"frustumCulling":true,"groupNames":["Collection"],"hidden":false,"hidpiCompositing":false,"objectColor":[1.0,1.0,1.0],"objectIndex":0,"renderOrder":0,"useShadows":true}},"mesh":0,"name":"Cube","translation":[-0.5083715915679932,0.7355318069458008,-0.009054295718669891]},{"camera":0,"extensions":{"S8S_v3d_node_data":{"frustumCulling":true,"groupNames":["Collection"],"hidden":false,"hidpiCompositing":false,"objectColor":[0.0,0.0,0.0],"objectIndex":0,"renderOrder":0}},"name":"Camera","rotation":[-0.17918822169303894,0.29284220933914185,0.05597032979130745,0.9375512599945068],"scale":[1.0,0.9999999403953552,0.9999998807907104],"translation":[5.847099304199219,4.843696594238281,8.43179988861084]},{"extensions":{"S8S_v3d_node_data":{"frustumCulling":true,"groupNames":["Collection"],"hidden":false,"hidpiCompositing":false,"objectColor":[1.0,1.0,1.0],"objectIndex":0,"renderOrder":0,"useShadows":true}},"mesh":1,"name":"Cylinder","translation":[1.3969838619232178e-08,0.0,1.862645149230957e-08]},{"extensions":{"S8S_v3d_node_data":{"frustumCulling":true,"groupNames":["Collection"],"hidden":false,"hidpiCompositing":false,"objectColor":[1.0,1.0,1.0],"objectIndex":0,"renderOrder":0,"useShadows":true}},"mesh":2,"name":"Plane","rotation":[0.0,0.0,-0.7071067094802856,0.7071068286895752],"translation":[7.430709362030029,0.0,1.862645149230957e-08]}],"scene":0,"scenes":[{"extensions":{"S8S_v3d_scene_data":{"aaMethod":"AUTO","iblEnvironmentMode":"PMREM","physicallyCorrectLights":true,"pmremMaxTileSize":512,"shadowMap":{"esmDistanceScale":1.0,"renderReverseSided":false,"renderSingleSided":true,"type":"PCFPOISSON"},"toneMapping":{"type":"filmicBlender"},"worldMaterial":2}},"extras":{"animFrameRate":24,"coordSystem":"Z_UP_RIGHT"},"name":"Scene","nodes":[0,2,3,1,4]}]}
